<svg xmlns="http://www.w3.org/2000/svg" fill="none" stroke="currentColor" stroke-linecap="round" stroke-linejoin="round" stroke-width="2" viewBox="0 0 32 32"><path d="M24.295 9.929a.56.56 0 0 1-.191.387l-.001.001a.9.9 0 0 1-.504.278l-.005.001a1 1 0 0 1-.094.007h0-.004a.75.75 0 0 1-.694-.46l-.002-.005c-.03-.221.33-.388.701-.44s.764.011.794.231m-9.91.514a.82.82 0 0 1-.766.528h-.011.001q0 0 0 0a1 1 0 0 1-.105-.007h.004a1 1 0 0 1-.63-.392l-.002-.003a.54.54 0 0 1-.132-.354v-.001 0a.28.28 0 0 1 .115-.185l.001-.001a1.1 1.1 0 0 1 .77-.107l-.007-.001c.395.055.803.242.764.523zm11.018 7.643-.107-.134-.044-.055a6.16 6.16 0 0 0 .725-2.921q-.002-.733-.162-1.418l.008.042a10 10 0 0 1-.111-1.508v-.021.001a11 11 0 0 1 .158-1.429l-.01.066A8.4 8.4 0 0 0 26 9.165l-.001-.151v.008a.7.7 0 0 0 .019-.162q0-.04-.004-.079v.003a9.5 9.5 0 0 0-2.168-4.073l.007.008a9.8 9.8 0 0 0-3.3-2.523l-.06-.025a11.3 11.3 0 0 1 2.316-.234l.225.002h-.011l.15-.002a7.47 7.47 0 0 1 5.866 2.838l.012.016a1 1 0 0 1 .08.12l.003.005c.904 1.694-.345 7.842-3.732 13.172zm-.286-8.764a9 9 0 0 1-.14 1.307l.008-.055c-.078.425-.134.931-.157 1.445l-.001.025v.056q0 .851.124 1.668l-.008-.061c.085.377.134.809.134 1.254 0 .763-.144 1.493-.407 2.162l.014-.04a4 4 0 0 1-.224-.453l-.011-.029a10 10 0 0 0-.406-.77c-.769-1.38-2.571-4.611-1.649-5.929.474-.678 1.676-.707 2.722-.579zm-.711 11.585c-.051-1.039.336-1.148.746-1.263q.085-.023.169-.051.076.067.162.125l.005.003c.62.273 1.342.431 2.102.431.592 0 1.161-.096 1.693-.274l-.038.011a5 5 0 0 1-1.16.738l-.031.013a6.3 6.3 0 0 1-2.173.454h-.01a2.73 2.73 0 0 1-1.482-.195l.018.007zm-1.113 2.026q-.03.332-.077.745l-.182.548a.4.4 0 0 0-.023.134v0l.001.089c0 .355-.053.699-.151 1.022l.006-.025c-.116.389-.196.84-.223 1.305l-.001.016a3.307 3.307 0 0 1-3.008 3.194l-.013.001c-1.894.406-2.23-.621-2.526-1.527q-.045-.142-.096-.283a9.3 9.3 0 0 1-.252-2.171q0-.54.059-1.065l-.004.043a10 10 0 0 0-.432-3.378l.019.071q.008-.55.024-1.114v-.012a.4.4 0 0 0-.02-.132l.001.003a2 2 0 0 0-.058-.273l.003.013a1.8 1.8 0 0 0-.964-1.164l-.011-.005a1.36 1.36 0 0 0-.907-.107l.009-.002c.128-.47.26-.854.412-1.228l-.026.073.066-.177c.074-.2.167-.407.266-.626a8.8 8.8 0 0 0 .865-3.841c0-.938-.144-1.842-.411-2.692l.017.063a2.314 2.314 0 0 0-2.805-1.883l.016-.003a6.4 6.4 0 0 0-2.171.682l.035-.017q-.124.063-.245.13a9.3 9.3 0 0 1 2.181-5.615l-.012.014q.178-.179.37-.338l.009-.007a.45.45 0 0 0 .182-.081l-.001.001a5.46 5.46 0 0 1 3.515-1.04l-.013-.001c.526.008 1.034.044 1.534.108l-.067-.007a8.62 8.62 0 0 1 5.032 2.963l.011.014a9.9 9.9 0 0 1 1.766 2.998l.022.069a3.4 3.4 0 0 0-3.346.972l-.002.002c-1.24 1.773.679 5.215 1.601 6.869.169.303.315.565.361.676.26.601.587 1.118.98 1.577l-.007-.008c.087.109.171.214.236.306-.501.144-1.401.478-1.319 2.146-.015.195-.053.558-.104 1.018a8 8 0 0 0-.123.93l-.002.028zm-9.202-5.714-.066.176c-.137.328-.279.745-.397 1.172l-.019.081a3.15 3.15 0 0 1-2.261-1.001l-.002-.002a3.72 3.72 0 0 1-.975-3.146l-.003.021c.097-.72.153-1.551.153-2.396q0-.753-.058-1.491l.004.065q-.01-.162-.015-.275a4.84 4.84 0 0 1 3.32-.965l-.017-.001c.554.129.971.588 1.037 1.153l.001.006c.238.728.375 1.566.375 2.435a8.1 8.1 0 0 1-.809 3.532l.021-.048c-.105.233-.204.453-.289.682zm-2.617 4.984a2 2 0 0 1-.549-.227l.009.005c.172-.073.375-.134.585-.173l.019-.003c1.604-.33 1.851-.563 2.392-1.25.124-.157.264-.336.459-.553a.4.4 0 0 0 .091-.159l.001-.003c.213-.189.34-.137.546-.052a.94.94 0 0 1 .46.587l.001.007a.65.65 0 0 1-.058.558l.002-.003a3.51 3.51 0 0 1-3.983 1.258zm-7.507-6.357c-.651-1.985-1.181-4.34-1.494-6.764l-.021-.199a6 6 0 0 1-.095-1.071c0-1.806.789-3.427 2.041-4.537l.006-.005c2.295-1.623 6.048-.676 7.633-.163l-.012.012a10.9 10.9 0 0 0-2.463 7.198v-.013c0 .103.008.249.02.449a18 18 0 0 1-.102 3.738l.01-.091a4.6 4.6 0 0 0 1.218 3.863l-.002-.002q.151.158.315.297a65 65 0 0 0-2.377 2.696c-.709.853-1.199.689-1.36.636a3.5 3.5 0 0 1-1.538-1.631l-.009-.022a21.5 21.5 0 0 1-1.73-4.232l-.039-.157zm26.478 3.557a.7.7 0 0 0-.072-.151l.002.003q-.263-.495-1.259-.29c-2.066.426-2.866.164-3.156-.024a29.3 29.3 0 0 0 3.751-8.326l.049-.209c.339-1.313.997-4.403.153-5.913a2 2 0 0 0-.192-.298l.003.004a8.45 8.45 0 0 0-6.85-3.193h.011l-.141-.001c-1.342 0-2.633.22-3.838.625l.085-.025q-.321-.06-.645-.102a9.7 9.7 0 0 0-1.631-.16h-.008a6.4 6.4 0 0 0-3.835 1.065l.024-.015c-1.071-.401-5.984-2.056-9.025.098a6.87 6.87 0 0 0-2.324 6.432l-.006-.041a40 40 0 0 0 1.632 7.461l-.079-.284a23 23 0 0 0 1.852 4.6l-.061-.124a4.48 4.48 0 0 0 2.116 2.225l.026.012a2.06 2.06 0 0 0 2.317-.901l.005-.009a70 70 0 0 1 2.43-2.758 3.8 3.8 0 0 0 1.731.471h.006l.001.005q-.158.188-.309.382c-.424.538-.512.649-1.875.93-.388.08-1.418.292-1.433 1.014v.013c0 .147.043.284.117.399l-.002-.003c.312.395.751.678 1.254.788l.015.003c.399.13.859.205 1.335.205 1.1 0 2.106-.398 2.884-1.058l-.006.005a26.6 26.6 0 0 0 .459 6.526l-.027-.167a3.23 3.23 0 0 0 3.084 2.38h.002a5 5 0 0 0 1.07-.124l-.033.006a3.92 3.92 0 0 0 3.567-3.619l.001-.012c.188-1.088.502-3.593.673-5.125a.34.34 0 0 1 .072-.171l-.001.001c.001-.001.087-.059.534.038l.055.009.317.028.019.001a7.65 7.65 0 0 0 3.214-.557l-.051.018c.805-.373 2.256-1.29 1.993-2.087"/></svg>
